<svg role="img" xmlns="http://www.w3.org/2000/svg" width="141.5997mm" height="107.57899mm" viewBox="0 0 141.5997 107.57899">
    <title>chat</title>
    <path id="chat" fill="#3C3D3F" d="m 124.54873,31.588353 q 0,12.430195 -12.54857,20.36184 -0.29597,2.071699 -0.29597,3.847437 0,5.268032 3.19634,8.878709 0.35515,0.414337 6.68863,5.682378 -10.47688,0.23676 -16.27764,-3.729062 -4.38019,-2.959573 -7.043808,-9.352239 -4.202566,0.828682 -8.523512,0.828682 -4.794473,0 -10.12169,-1.479787 -2.0717,-7.754076 -8.819517,-14.028357 -7.221352,-6.747818 -15.330571,-7.339731 -0.532723,-2.308468 -0.532723,-3.66987 0,-10.772832 10.180918,-17.934988 10.003342,-6.9253939 24.623583,-6.9253939 14.62025,0 24.6236,6.9253939 10.18093,7.162156 10.18093,17.934988 z M 77.25485,60.296172 q 0,10.950409 -10.240112,18.704485 -10.180914,7.754067 -24.623613,7.754067 -6.984584,0 -13.318062,-2.012507 -1.953315,12.015814 -13.614019,12.015814 -3.965825,0 -9.4114326,-3.196312 4.9128846,-0.532727 7.9908386,-4.143379 3.077952,-3.669864 3.077952,-9.293049 0,-0.828681 -0.05919,-1.716546 -9.4706245,-7.635692 -9.4706245,-18.112573 0,-10.891207 10.1809225,-18.29013 10.003343,-7.280548 24.564424,-7.280548 14.501891,0 24.682806,7.339739 10.240112,7.339732 10.240112,18.230939 z"></path>
</svg>
